<?xml version="1.0" standalone="no"?>
<!DOCTYPE svg PUBLIC "-//W3C//DTD SVG 20010904//EN"
 "http://www.w3.org/TR/2001/REC-SVG-20010904/DTD/svg10.dtd">
<svg version="1.0" xmlns="http://www.w3.org/2000/svg"
 width="500.000000pt" height="500.000000pt" viewBox="0 0 500.000000 500.000000"
 preserveAspectRatio="xMidYMid meet">
<metadata>
Created by potrace 1.14, written by Peter Selinger 2001-2017
</metadata>
<g transform="translate(0.000000,500.000000) scale(0.100000,-0.100000)"
fill="#000000" stroke="none">
<path d="M2596 4628 c-3 -13 -9 -80 -13 -150 -6 -121 -5 -128 13 -128 10 0 24
4 29 8 6 4 10 65 10 147 0 121 -2 140 -16 143 -10 2 -19 -6 -23 -20z"/>
<path d="M2415 4608 c-3 -11 -25 -215 -25 -240 0 -4 7 -8 15 -8 20 0 31 30 40
109 5 48 10 60 17 48 5 -10 6 -22 3 -27 -3 -6 -2 -10 3 -10 6 0 17 -18 25 -39
9 -22 22 -43 28 -47 9 -5 10 -2 4 12 -4 10 -22 59 -40 108 -31 84 -60 124 -70
94z"/>
<path d="M2812 4496 c-6 -63 -15 -122 -18 -131 -5 -13 -2 -16 16 -13 28 4 35
25 53 161 l13 97 -26 0 c-25 0 -26 -1 -38 -114z"/>
<path d="M2180 4558 c0 -81 34 -224 56 -232 13 -5 15 3 12 59 -1 36 -1 65 2
65 3 0 25 -21 50 -46 59 -61 64 -38 6 30 -41 47 -45 57 -37 79 13 33 -11 64
-56 73 -32 6 -33 6 -33 -28z m80 -29 c0 -10 -4 -20 -9 -23 -10 -7 -21 17 -21
46 0 17 3 18 15 8 8 -7 15 -21 15 -31z"/>
<path d="M2966 4560 c-46 -179 -59 -240 -54 -245 14 -15 44 17 63 66 17 43 26
54 50 61 17 4 36 15 42 25 16 22 16 63 0 85 -11 14 -13 10 -13 -30 1 -40 -3
-48 -26 -61 -15 -9 -29 -13 -31 -11 -3 3 -2 31 0 62 5 48 9 58 27 61 11 3 4 4
-17 3 -24 -1 -39 -6 -41 -16z"/>
<path d="M2050 4534 c-6 -14 -10 -44 -10 -67 l0 -42 -43 49 c-30 34 -48 47
-62 44 -25 -5 -23 -23 11 -135 17 -55 30 -83 40 -83 29 0 28 42 -2 144 -5 16
-3 16 24 -4 33 -25 52 -20 53 13 0 12 14 -20 30 -70 16 -51 33 -93 37 -93 5 0
16 6 27 13 17 13 17 17 -10 113 -30 108 -47 144 -70 144 -9 0 -20 -12 -25 -26z"/>
<path d="M3153 4523 c24 -6 19 -27 -33 -148 -49 -115 -51 -129 -23 -133 27 -4
48 34 89 161 l29 89 35 -6 35 -5 -35 18 c-19 10 -53 21 -75 24 -22 3 -32 3
-22 0z"/>
<path d="M1751 4451 c-9 -6 -5 -33 20 -118 37 -130 43 -143 60 -126 12 12 10
32 -19 153 -5 22 -4 24 11 11 9 -7 14 -17 11 -22 -3 -5 1 -9 9 -9 7 0 26 -13
42 -30 16 -16 33 -30 38 -30 6 0 -12 24 -39 53 -27 28 -60 66 -74 82 -32 39
-43 46 -59 36z"/>
<path d="M1582 4411 c-22 -16 -44 -36 -48 -43 -6 -10 -5 -10 9 0 18 15 19 13
110 -148 44 -79 70 -95 75 -47 3 21 -13 54 -62 129 l-66 100 23 19 c36 30 4
22 -41 -10z"/>
<path d="M3271 4319 c-34 -49 -65 -99 -68 -109 -9 -34 24 -23 58 20 46 56 64
50 60 -20 -4 -83 7 -56 28 66 17 102 15 134 -8 134 -3 0 -35 -41 -70 -91z m63
-23 c-6 -16 -24 -23 -24 -8 0 10 22 33 27 28 2 -2 1 -11 -3 -20z"/>
<path d="M2325 4211 c-5 -22 -16 -33 -42 -44 l-36 -14 31 -19 c26 -15 32 -25
32 -52 l0 -33 26 20 c20 16 31 18 50 10 35 -13 34 -13 28 21 -4 19 -1 38 10
55 22 33 21 35 -17 35 -26 0 -37 6 -47 25 -18 33 -27 32 -35 -4z"/>
<path d="M2652 4212 c-18 -24 -31 -32 -53 -32 l-30 0 20 -29 c16 -22 19 -35
12 -59 l-9 -30 31 13 c29 12 35 11 57 -7 l25 -20 3 33 c2 22 12 42 29 55 l25
22 -34 11 c-27 9 -38 19 -44 43 l-10 32 -22 -32z"/>
<path d="M2010 4116 c0 -26 -6 -38 -27 -52 l-28 -18 33 -13 c18 -7 34 -19 36
-26 17 -54 16 -54 34 -24 13 21 24 27 50 27 l33 0 -17 28 c-15 26 -15 31 0 59
l15 31 -34 -8 c-27 -6 -40 -4 -59 11 -33 26 -36 24 -36 -15z"/>
<path d="M2964 4129 c-14 -16 -26 -19 -51 -14 -37 7 -37 6 -22 -28 9 -19 7
-31 -6 -57 l-17 -33 32 7 c27 5 36 2 53 -21 l21 -26 11 34 c9 25 19 35 45 42
l34 9 -32 20 c-26 16 -32 27 -32 54 0 39 -9 43 -36 13z"/>
<path d="M1003 4006 c-40 -65 -56 -131 -43 -176 5 -18 7 -45 5 -59 -3 -14 -2
-19 1 -11 4 8 19 27 34 42 15 15 38 47 51 72 22 43 23 48 10 108 -7 35 -16 66
-19 70 -4 3 -21 -17 -39 -46z m49 -21 c14 -44 7 -82 -23 -130 -24 -37 -33 -45
-40 -34 -5 8 -9 10 -10 4 0 -5 -4 2 -9 17 -10 35 5 103 31 139 23 32 41 34 51
4z"/>
<path d="M1021 3954 c0 -11 3 -14 6 -6 3 7 2 16 -1 19 -3 4 -6 -2 -5 -13z"/>
<path d="M1444 4030 c-23 -5 -64 -20 -90 -33 -27 -14 -64 -28 -82 -32 -40 -8
-246 -203 -293 -277 -17 -27 -32 -48 -33 -48 -2 0 -1 15 1 33 2 25 0 22 -10
-14 -15 -53 -59 -133 -94 -171 -16 -16 -22 -31 -17 -40 4 -7 3 -9 -1 -5 -5 4
-17 -7 -27 -25 l-18 -33 3 50 c2 28 7 59 12 70 8 20 8 20 -8 0 -19 -25 -29
-16 -38 38 l-6 42 -2 -40 c0 -22 6 -50 14 -63 21 -29 22 -159 3 -237 -15 -59
-15 -60 -27 -32 -6 16 -11 34 -11 40 0 7 -5 19 -10 27 -8 11 -9 7 -4 -14 l7
-30 -32 35 c-25 26 -23 22 8 -19 40 -52 41 -56 40 -130 l-1 -77 -29 60 c-16
33 -29 66 -29 74 0 24 -48 97 -74 115 -30 19 -75 21 -111 4 -30 -13 -32 -24
-6 -33 11 -3 36 -19 57 -36 21 -16 57 -38 80 -49 36 -15 48 -29 74 -79 19 -38
34 -89 41 -136 5 -42 16 -96 24 -120 7 -26 9 -42 3 -39 -6 4 -8 -2 -3 -16 7
-21 7 -22 -12 -3 -11 10 -19 20 -17 23 1 3 -6 17 -17 30 -16 21 -18 22 -13 5
6 -22 12 -27 -79 80 -23 27 -42 53 -42 56 0 4 -4 11 -9 16 -6 5 -6 2 -1 -7 8
-13 7 -13 -11 0 -10 8 -21 16 -24 18 -17 12 55 -10 80 -25 32 -18 106 -108
127 -153 6 -14 12 -18 12 -10 3 58 -172 228 -211 204 -7 -4 -8 -3 -4 4 5 8 -2
12 -21 12 -26 0 -24 -4 47 -73 127 -122 247 -276 270 -348 8 -24 16 -35 21
-28 4 7 6 1 6 -14 -2 -28 0 -29 -71 30 -22 18 -55 35 -75 38 -20 3 -52 10 -72
15 -36 10 -69 5 -69 -9 0 -4 30 -22 68 -40 37 -18 90 -50 117 -71 28 -21 69
-47 92 -59 45 -22 113 -77 113 -91 0 -4 -25 6 -56 22 -50 27 -62 30 -107 24
-29 -4 -58 -8 -64 -8 -7 -1 -13 -4 -13 -7 1 -8 171 -64 176 -58 2 2 -15 10
-38 17 -37 11 -40 14 -23 21 18 8 17 8 -5 7 -44 -2 -61 2 -55 12 12 20 67 9
136 -26 39 -19 69 -38 66 -40 -3 -3 -14 -1 -24 4 -10 5 -24 7 -32 4 -9 -3 5
-12 32 -23 44 -18 160 -93 252 -163 l39 -31 -34 -6 -35 -6 37 -2 c20 0 78 -15
129 -31 50 -17 94 -28 96 -26 9 9 -79 47 -93 42 -9 -3 -12 -1 -9 4 3 6 -3 10
-14 10 -11 0 -33 12 -50 26 -35 29 -40 66 -15 102 8 12 12 27 8 34 -4 7 -3 8
4 4 7 -4 12 -3 12 3 0 11 -19 25 -26 19 -2 -3 -6 -18 -7 -34 -2 -17 -9 -39
-15 -50 -10 -17 -11 -17 -17 9 -9 33 3 134 16 142 5 4 9 20 9 36 0 24 -4 30
-17 27 -14 -3 -18 -12 -16 -38 2 -52 -7 -120 -17 -120 -5 0 -18 26 -30 58 -18
47 -20 62 -11 88 15 40 -1 83 -30 84 -27 0 -3 -100 53 -220 l30 -65 -26 24
c-15 14 -30 39 -34 55 -5 17 -16 32 -25 34 -32 6 -17 -18 59 -99 41 -45 73
-83 70 -86 -5 -6 -87 60 -118 94 -48 52 -118 239 -118 311 0 31 -14 50 -24 34
-3 -5 -11 -41 -17 -81 -11 -63 -10 -77 5 -108 28 -59 11 -47 -23 16 -21 40
-34 84 -41 133 -10 75 -28 146 -29 116 -1 -9 -4 -25 -7 -35 -5 -15 -4 -16 6
-3 9 12 10 7 6 -25 -4 -28 -3 -34 4 -20 8 18 9 17 9 -7 2 -48 -17 -30 -40 40
-25 75 -32 173 -11 179 6 3 13 12 14 21 1 10 4 -17 8 -58 l6 -75 2 80 c1 44 6
96 12 115 5 19 6 38 2 42 -13 13 -48 -61 -62 -128 -10 -52 -10 -70 4 -124 9
-35 15 -65 13 -67 -5 -4 -57 129 -69 176 -5 20 -11 67 -14 105 l-5 69 46 42
c25 23 45 50 45 59 0 27 -19 18 -34 -18 -19 -44 -39 -58 -30 -19 10 40 24 65
51 90 12 12 23 29 23 38 0 25 -30 17 -41 -12 -6 -16 -17 -41 -24 -58 l-13 -30
5 38 c4 24 2 37 -6 37 -8 0 -11 -21 -9 -62 1 -42 -4 -75 -15 -98 l-17 -35 3
85 c4 98 16 128 89 213 39 44 56 57 78 57 46 0 160 114 160 160 0 18 -46 11
-81 -13 -19 -12 -53 -51 -76 -86 -24 -34 -67 -89 -95 -122 l-53 -58 -2 36 c-1
22 1 32 6 24 5 -7 10 11 14 46 6 62 62 197 94 225 10 9 47 30 82 48 61 30 68
32 115 21 147 -31 191 -40 194 -37 6 7 -62 96 -74 96 -7 0 1 -14 18 -31 39
-39 27 -55 -28 -40 -22 6 -51 11 -66 11 -15 0 -34 7 -43 17 -16 15 -16 17 2
27 10 5 36 13 58 17 38 6 39 7 7 8 -22 1 -66 -17 -137 -55 -58 -31 -105 -52
-105 -47 0 5 22 30 49 57 42 41 56 49 101 54 30 4 55 13 58 20 4 14 -34 17
-43 2 -3 -5 -14 -10 -23 -10 -27 1 25 40 53 40 37 0 75 18 75 35 0 37 -63 6
-167 -83 -29 -24 -53 -41 -53 -37 0 5 14 30 31 56 42 65 103 119 137 120 26 1
26 1 4 8 -24 6 -24 6 -4 24 26 24 115 57 153 57 49 0 319 129 319 152 0 10
-91 9 -146 -2z m101 -10 c3 -6 -1 -7 -10 -4 -10 4 -15 2 -13 -6 2 -7 -40 -35
-97 -64 -82 -41 -109 -51 -152 -51 -28 0 -50 -2 -48 -5 2 -3 -5 -6 -16 -6 -10
0 -19 2 -19 5 0 12 55 61 69 61 9 0 41 12 71 26 96 45 201 66 215 44z m-385
-290 c0 -5 -3 -10 -7 -10 -5 0 -19 -3 -33 -6 -24 -5 -24 -5 -6 10 22 18 46 21
46 6z m-113 -297 c1 -21 -105 -133 -124 -133 -53 0 60 143 118 149 3 1 6 -7 6
-16z m-236 -26 c-10 -9 -11 -8 -5 6 3 10 9 15 12 12 3 -3 0 -11 -7 -18z m-217
-128 c24 -19 56 -67 56 -85 0 -3 -8 0 -17 7 -11 10 -14 10 -9 2 13 -23 -10
-14 -65 24 -58 39 -71 52 -63 65 10 16 72 8 98 -13z m246 -144 c-7 -9 -15 -13
-18 -10 -3 2 1 11 8 20 7 9 15 13 18 10 3 -2 -1 -11 -8 -20z m40 -243 c0 -5
-7 -17 -16 -28 -8 -10 -14 -14 -11 -9 2 6 7 18 10 28 7 17 17 23 17 9z m-245
-252 c-4 -6 5 -7 24 -4 16 3 45 1 64 -5 42 -14 162 -124 153 -140 -9 -15 -52
8 -132 69 -35 27 -79 53 -98 60 -32 10 -42 30 -15 30 6 0 7 -4 4 -10z m381
-170 c9 -30 31 -85 49 -122 l32 -67 -28 20 c-65 46 -103 128 -93 200 8 58 16
52 40 -31z m134 -6 c0 -26 -20 -24 -30 1 -13 34 -2 55 17 30 7 -11 13 -24 13
-31z m80 -43 c0 -11 -4 -23 -10 -26 -6 -4 -10 5 -10 19 0 14 5 26 10 26 6 0
10 -9 10 -19z"/>
<path d="M1415 3969 c-22 -10 -33 -18 -25 -18 8 0 31 8 50 19 45 25 27 24 -25
-1z"/>
<path d="M999 3393 c-13 -16 -12 -17 4 -4 9 7 17 15 17 17 0 8 -8 3 -21 -13z"/>
<path d="M810 2535 c19 -19 36 -35 39 -35 3 0 -10 16 -29 35 -19 19 -36 35
-39 35 -3 0 10 -16 29 -35z"/>
<path d="M991 2484 c0 -11 3 -14 6 -6 3 7 2 16 -1 19 -3 4 -6 -2 -5 -13z"/>
<path d="M3450 4027 c1 -17 241 -158 267 -157 4 0 -28 20 -72 43 -103 55 -136
77 -129 88 3 5 -3 6 -13 2 -14 -4 -15 -3 -7 6 17 19 110 -2 201 -45 43 -20 88
-41 100 -47 13 -6 30 -21 39 -35 16 -24 16 -25 -5 -19 -40 10 -30 -11 13 -27
24 -9 53 -28 66 -41 22 -23 22 -25 4 -25 -11 0 -1 -9 24 -20 32 -15 52 -35 84
-84 23 -36 44 -64 46 -61 10 10 -65 114 -131 180 -40 39 -84 88 -99 107 -16
22 -43 41 -65 49 -21 6 -62 24 -91 40 -70 37 -232 69 -232 46z"/>
<path d="M3990 3996 c-30 -81 -32 -106 -9 -154 13 -25 35 -59 50 -74 l26 -28
13 44 c16 57 5 117 -32 183 -17 29 -32 53 -34 53 -3 0 -9 -11 -14 -24z m20
-31 c6 18 10 15 27 -20 27 -53 36 -98 28 -137 l-7 -32 -14 25 -14 24 6 -29
c10 -42 -8 -26 -40 37 -25 51 -26 57 -14 103 8 33 14 42 16 29 l5 -20 7 20z"/>
<path d="M4012 3895 c0 -16 2 -22 5 -12 2 9 2 23 0 30 -3 6 -5 -1 -5 -18z"/>
<path d="M1736 3946 c5 -31 2 -41 -17 -62 l-22 -24 35 0 c29 0 40 -6 56 -31
l19 -31 11 31 c8 23 19 33 42 38 l31 6 -23 24 c-16 17 -22 34 -19 55 2 27 0
30 -16 23 -23 -11 -63 -11 -86 0 -17 7 -18 4 -11 -29z"/>
<path d="M3160 3948 c6 -27 2 -38 -18 -60 l-26 -28 33 0 c27 0 34 -5 42 -30
13 -37 22 -38 37 -5 9 20 19 25 47 25 40 0 44 9 14 35 -16 16 -19 26 -14 58
l7 39 -31 -16 c-28 -15 -34 -15 -61 -1 -39 20 -39 20 -30 -17z"/>
<path d="M3570 3976 c0 -3 9 -10 20 -16 11 -6 20 -8 20 -6 0 3 -9 10 -20 16
-11 6 -20 8 -20 6z"/>
<path d="M3648 3933 c7 -3 16 -2 19 1 4 3 -2 6 -13 5 -11 0 -14 -3 -6 -6z"/>
<path d="M3700 3916 c0 -2 7 -7 16 -10 8 -3 12 -2 9 4 -6 10 -25 14 -25 6z"/>
<path d="M3743 3863 c9 -2 23 -2 30 0 6 3 -1 5 -18 5 -16 0 -22 -2 -12 -5z"/>
<path d="M1237 3834 c-3 -3 -23 -12 -44 -19 -27 -10 -32 -14 -16 -15 13 0 52
-12 88 -26 36 -15 68 -25 70 -22 3 2 -18 12 -46 22 -36 13 -47 21 -37 27 9 6
6 9 -11 9 -32 0 -21 10 21 20 29 7 30 8 7 9 -14 1 -28 -2 -32 -5z"/>
<path d="M1347 3829 c18 -5 39 -19 48 -31 20 -29 19 -39 -2 -31 -15 5 -14 3 2
-10 19 -16 19 -16 -15 -12 -30 4 -29 3 8 -7 23 -6 45 -8 48 -5 6 6 -20 51 -50
85 -11 13 -30 22 -45 21 -24 -1 -24 -2 6 -10z"/>
<path d="M3652 3813 c-12 -5 -62 -76 -62 -88 0 -11 109 5 165 24 33 11 78 21
100 22 38 1 39 1 10 8 -16 4 -44 15 -62 24 -18 9 -42 17 -55 16 -18 -1 -17 -3
8 -8 76 -19 61 -38 -53 -67 -61 -15 -75 -16 -85 -5 -10 11 -10 12 -1 7 7 -4
21 -2 30 4 16 9 15 10 -4 5 -13 -4 -23 -2 -23 3 0 13 43 49 65 55 l20 5 -20 0
c-11 0 -26 -2 -33 -5z"/>
<path d="M3718 3773 c7 -3 16 -2 19 1 4 3 -2 6 -13 5 -11 0 -14 -3 -6 -6z"/>
<path d="M1584 3749 c-14 -16 -27 -20 -51 -16 -38 7 -39 5 -17 -28 14 -21 14
-30 4 -55 -15 -37 -11 -43 21 -31 18 6 31 4 51 -10 l26 -19 7 31 c5 20 16 34
33 40 26 10 27 11 7 24 -38 27 -45 36 -45 60 0 31 -11 32 -36 4z"/>
<path d="M3678 3763 c7 -3 16 -2 19 1 4 3 -2 6 -13 5 -11 0 -14 -3 -6 -6z"/>
<path d="M3385 3730 c-4 -17 -18 -38 -32 -47 l-25 -16 25 -14 c15 -7 28 -25
32 -44 l7 -31 23 22 c18 17 30 20 54 15 35 -7 35 -7 21 30 -7 20 -6 34 6 57
l16 31 -36 -6 c-20 -3 -38 -2 -41 4 -4 5 -15 13 -25 19 -16 8 -19 5 -25 -20z"/>
<path d="M951 3724 c0 -11 3 -14 6 -6 3 7 2 16 -1 19 -3 4 -6 -2 -5 -13z"/>
<path d="M4061 3714 c0 -11 3 -14 6 -6 3 7 2 16 -1 19 -3 4 -6 -2 -5 -13z"/>
<path d="M3850 3711 c0 -15 26 -31 61 -37 43 -8 79 -30 79 -49 0 -8 6 -15 13
-15 8 0 22 -9 32 -20 10 -11 23 -20 29 -20 6 1 -1 11 -15 23 -129 110 -152
127 -175 127 -13 0 -24 -4 -24 -9z m60 -16 c16 -19 3 -19 -30 0 -24 13 -24 14
-4 15 12 0 27 -7 34 -15z"/>
<path d="M750 3690 c-6 -12 -9 -38 -7 -58 l4 -37 1 42 c2 43 22 72 22 31 0
-18 2 -20 9 -9 11 17 18 -6 24 -74 4 -39 4 -39 5 7 2 45 -23 118 -40 118 -4 0
-12 -9 -18 -20z"/>
<path d="M1981 3674 c-82 -22 -169 -73 -241 -141 -124 -116 -175 -240 -166
-398 9 -160 59 -293 154 -410 47 -59 48 -61 35 -93 -24 -58 -27 -143 -8 -208
22 -75 88 -146 153 -164 31 -8 163 -10 450 -8 380 3 410 5 457 23 29 12 55 30
61 44 7 13 22 28 35 35 13 6 33 25 44 42 11 17 32 38 48 47 15 9 27 22 27 29
0 7 40 42 90 77 49 35 118 93 153 130 35 37 84 82 109 99 140 96 184 226 119
358 -16 32 -34 86 -40 119 -25 137 -128 276 -263 358 -178 108 -383 102 -527
-14 -42 -33 -109 -123 -132 -176 -8 -18 -16 -33 -19 -33 -3 0 -12 16 -18 35
-20 53 -94 147 -148 187 -99 73 -244 97 -373 62z m294 -53 c83 -41 147 -111
196 -217 22 -46 44 -84 49 -84 5 0 27 37 48 83 115 243 335 320 577 201 155
-76 262 -216 288 -376 l6 -37 -107 -25 c-119 -28 -331 -61 -463 -71 -82 -7
-88 -6 -126 19 -60 40 -148 67 -254 79 -86 10 -100 9 -123 -6 -51 -34 -27 -89
54 -122 25 -10 49 -22 55 -27 5 -4 -63 -8 -152 -8 -149 0 -162 -2 -188 -22
-23 -18 -26 -27 -22 -57 3 -23 0 -41 -9 -49 -22 -20 -17 -66 10 -91 14 -13 22
-30 19 -38 -8 -19 16 -61 39 -69 10 -3 18 -12 18 -20 0 -12 -30 -14 -179 -14
-179 0 -180 0 -211 26 -38 33 -110 134 -139 197 -37 83 -53 172 -49 288 3 99
5 110 42 184 118 238 411 359 621 256z m336 -485 c60 -19 108 -43 137 -69 21
-20 22 -27 22 -198 0 -137 -3 -178 -13 -182 -10 -4 -12 3 -9 24 7 48 -22 72
-80 66 -26 -3 -76 -17 -111 -31 -57 -23 -77 -26 -194 -26 -139 0 -193 11 -193
39 0 16 14 18 163 17 127 -1 162 2 162 12 0 10 -36 14 -155 17 -186 5 -233 20
-214 69 8 20 28 23 94 15 30 -4 106 -8 168 -8 87 -1 112 2 112 12 0 11 -35 15
-155 21 -158 6 -205 15 -205 39 0 33 23 37 210 37 103 0 189 3 193 6 3 4 0 19
-8 34 -9 18 -36 37 -84 58 -73 33 -87 45 -75 63 9 15 173 5 235 -15z m859 -8
c63 -104 24 -231 -97 -315 -123 -85 -271 -125 -451 -121 l-117 3 -3 183 -2
182 48 0 c108 0 437 51 542 84 61 20 58 20 80 -16z m-766 -384 c29 -11 17 -32
-49 -84 -36 -28 -62 -56 -59 -62 4 -7 72 -9 193 -7 183 4 186 4 189 -17 2 -12
-3 -24 -11 -27 -15 -6 -212 -26 -292 -30 -37 -1 -50 -6 -50 -17 0 -17 86 -17
240 1 50 5 99 11 110 12 14 1 21 -5 23 -20 3 -19 -5 -24 -50 -38 -29 -8 -107
-20 -173 -26 -139 -13 -145 -14 -145 -30 0 -14 196 -6 263 10 21 5 37 5 37 0
0 -23 -59 -43 -172 -58 -84 -11 -123 -20 -126 -30 -4 -12 9 -13 74 -7 44 4 95
9 114 12 l35 5 -26 -15 c-40 -23 -141 -36 -287 -36 l-132 0 2 182 3 181 65 33
c61 32 170 72 197 73 6 1 18 -2 27 -5z m506 -80 c-54 -54 -174 -139 -188 -131
-5 4 -9 21 -10 38 -1 58 -14 62 -173 60 -79 -1 -146 -4 -151 -7 -4 -3 -8 -1
-8 4 0 16 80 25 215 24 131 -1 258 16 319 43 17 7 33 14 36 14 2 1 -16 -19
-40 -45z m-820 16 c17 -5 -6 -8 -67 -9 -52 -1 -95 3 -98 9 -7 12 128 12 165 0z
m-268 -50 l258 0 0 -175 0 -175 -218 0 -218 0 -55 28 c-64 32 -93 72 -109 147
-11 53 -8 99 11 162 9 30 12 31 42 22 17 -5 148 -9 289 -9z"/>
<path d="M4072 3660 c0 -19 2 -27 5 -17 2 9 2 25 0 35 -3 9 -5 1 -5 -18z"/>
<path d="M4226 3626 c-23 -50 -22 -157 3 -187 l20 -24 15 37 c16 37 22 161 10
192 -10 26 -31 18 -48 -18z m44 -58 c0 -40 -3 -84 -7 -97 -6 -23 -7 -23 -14
-5 -7 17 -8 17 -8 1 -1 -10 -5 -15 -11 -12 -17 10 -12 137 6 163 26 37 34 25
34 -50z"/>
<path d="M4243 3565 c0 -22 2 -30 4 -17 2 12 2 30 0 40 -3 9 -5 -1 -4 -23z"/>
<path d="M3912 3638 c3 -7 20 -14 39 -16 32 -2 33 -1 15 13 -24 18 -59 20 -54
3z m35 -4 c-3 -3 -12 -4 -19 -1 -8 3 -5 6 6 6 11 1 17 -2 13 -5z"/>
<path d="M772 3595 c0 -16 2 -22 5 -12 2 9 2 23 0 30 -3 6 -5 -1 -5 -18z"/>
<path d="M4080 3615 c-9 -38 -6 -63 10 -80 37 -43 31 -47 -26 -15 -32 18 -66
39 -74 45 -34 28 -81 45 -124 45 -41 0 -48 -4 -82 -45 -20 -25 -34 -48 -32
-51 6 -5 109 10 190 27 45 10 51 9 111 -25 35 -19 73 -43 84 -53 31 -28 83
-173 83 -233 0 -28 4 -49 8 -46 5 3 8 -10 8 -29 -1 -19 -4 -31 -7 -27 -3 4
-24 30 -46 57 -22 28 -57 77 -76 110 -44 75 -93 123 -135 131 -56 11 -39 -31
47 -121 36 -37 60 -55 72 -52 21 6 26 3 77 -59 62 -76 81 -126 83 -214 l1 -75
12 50 c7 28 26 73 43 100 30 50 31 52 201 141 17 10 32 20 32 24 0 3 -14 14
-31 24 -65 38 -148 -17 -184 -123 -9 -25 -27 -64 -41 -86 l-26 -40 6 74 c6 92
39 143 112 180 47 23 64 37 64 54 0 21 -35 1 -89 -52 -33 -32 -62 -54 -64 -47
-2 6 -7 -4 -11 -21 -10 -42 -26 -43 -26 -2 0 16 -3 28 -8 25 -4 -2 -7 41 -7
97 0 56 -1 90 -3 75 -2 -19 -8 -25 -18 -21 -7 3 -12 9 -9 13 8 13 -6 40 -18
33 -6 -3 -7 -1 -3 5 4 7 -4 27 -17 44 -28 37 -66 110 -78 148 -4 14 -8 21 -9
15z m-140 -30 c14 -8 19 -14 12 -15 -7 0 -10 -4 -7 -10 7 -11 -15 -16 -97 -25
-31 -3 -59 -2 -62 3 -3 5 5 21 19 36 19 20 33 26 67 26 24 -1 54 -7 68 -15z
m58 -179 c54 -28 127 -146 90 -146 -22 0 -119 106 -122 133 -4 31 -4 31 32 13z
m432 -111 c0 -2 -10 -10 -22 -16 -21 -11 -22 -11 -9 4 13 16 31 23 31 12z m58
-51 c34 -10 27 -28 -25 -61 -66 -41 -66 -41 -96 -47 -26 -5 -27 -4 -12 22 23
44 48 70 75 81 31 12 30 12 58 5z"/>
<path d="M3858 3553 c7 -3 16 -2 19 1 4 3 -2 6 -13 5 -11 0 -14 -3 -6 -6z"/>
<path d="M4020 3346 c0 -2 8 -10 18 -17 15 -13 16 -12 3 4 -13 16 -21 21 -21
13z"/>
<path d="M4402 3183 c-21 -21 -24 -26 -7 -11 16 15 41 31 55 37 18 7 20 10 7
10 -10 1 -35 -16 -55 -36z"/>
<path d="M1108 3593 c7 -3 16 -2 19 1 4 3 -2 6 -13 5 -11 0 -14 -3 -6 -6z"/>
<path d="M564 3569 c-10 -17 5 -53 30 -71 27 -19 26 -23 12 43 -6 28 -31 45
-42 28z m36 -41 c0 -17 -3 -18 -15 -8 -8 7 -15 21 -15 32 0 17 3 18 15 8 8 -7
15 -21 15 -32z"/>
<path d="M1190 3576 c0 -2 7 -7 16 -10 8 -3 12 -2 9 4 -6 10 -25 14 -25 6z"/>
<path d="M666 3504 c-4 -9 -4 -32 0 -51 l6 -34 15 28 c15 30 14 64 -3 70 -6 2
-14 -4 -18 -13z m15 -37 c-13 -13 -15 1 -4 30 7 17 8 17 11 -1 2 -10 -1 -23
-7 -29z"/>
<path d="M4416 3498 c-9 -12 -16 -30 -16 -40 0 -9 -13 -39 -29 -66 -16 -27
-32 -60 -36 -73 -4 -13 -16 -38 -26 -55 -11 -17 -19 -35 -19 -40 1 -5 6 1 13
13 7 13 39 45 72 73 43 36 67 50 90 50 33 0 55 15 55 37 0 32 -56 1 -149 -82
-33 -30 -33 -30 -26 -5 15 50 54 116 85 143 30 28 37 56 13 64 -6 2 -18 -6
-27 -19z m34 -2 c0 -16 -28 -42 -36 -33 -8 7 14 47 26 47 6 0 10 -6 10 -14z
m60 -105 c0 -10 -24 -21 -43 -21 -7 0 -3 7 7 15 22 17 36 19 36 6z"/>
<path d="M1430 3481 c-9 -22 -21 -31 -47 -36 l-35 -6 22 -24 c18 -19 22 -32
17 -60 l-6 -35 31 16 c24 12 36 14 55 5 34 -16 36 -14 30 18 -4 21 -1 34 13
46 27 24 25 35 -6 35 -19 0 -28 8 -40 35 -8 19 -16 35 -18 35 -2 0 -9 -13 -16
-29z"/>
<path d="M3543 3470 c-6 -16 -18 -32 -27 -35 -53 -17 -53 -16 -28 -32 16 -11
22 -25 22 -50 0 -30 3 -34 18 -28 38 16 51 16 74 1 24 -16 24 -16 20 20 -3 26
1 41 17 58 25 26 19 36 -21 36 -15 0 -28 3 -28 8 0 4 -8 17 -18 30 l-17 22
-12 -30z"/>
<path d="M494 3458 c-10 -16 32 -48 63 -48 16 0 44 -19 82 -55 l58 -55 -16 47
c-17 49 -40 95 -41 80 0 -4 7 -24 15 -44 8 -19 15 -37 15 -40 0 -2 -34 26 -75
62 -77 67 -89 73 -101 53z m36 -13 c10 -12 10 -15 -4 -15 -9 0 -16 7 -16 15 0
8 2 15 4 15 2 0 9 -7 16 -15z"/>
<path d="M4315 3451 c-3 -11 1 -33 9 -48 l14 -28 7 27 c8 33 4 60 -12 65 -6 2
-14 -5 -18 -16z m25 -18 c0 -20 -3 -24 -11 -16 -7 7 -9 19 -6 27 10 24 17 19
17 -11z"/>
<path d="M575 3361 c-9 -15 5 -38 31 -50 34 -15 35 -14 23 12 -12 27 -46 51
-54 38z m30 -21 c3 -5 2 -10 -4 -10 -5 0 -13 5 -16 10 -3 6 -2 10 4 10 5 0 13
-4 16 -10z"/>
<path d="M1345 3169 c-5 -22 -15 -34 -36 -41 -36 -13 -36 -19 1 -40 23 -13 30
-24 30 -48 0 -35 10 -38 28 -9 11 17 21 20 53 17 45 -4 43 -6 25 30 -12 24
-12 30 0 47 21 29 17 37 -15 30 -23 -5 -33 -1 -49 19 -25 33 -29 33 -37 -5z"/>
<path d="M3621 3170 c-19 -27 -28 -31 -52 -26 -33 6 -36 0 -12 -26 14 -16 15
-24 6 -49 -11 -28 -11 -29 21 -29 20 0 40 -8 51 -20 21 -23 35 -12 35 27 0 12
9 27 20 33 27 14 25 37 -3 44 -16 4 -26 16 -33 42 l-9 36 -24 -32z"/>
<path d="M929 3127 c-18 -12 -48 -49 -66 -81 -18 -32 -46 -75 -63 -96 -16 -21
-30 -42 -30 -46 0 -5 15 9 33 31 56 70 76 82 182 120 58 21 105 41 105 45 0 9
-93 50 -113 50 -8 0 -29 -10 -48 -23z m99 -5 l33 -18 -23 -11 c-45 -22 -121
-53 -130 -53 -6 0 -4 8 3 18 11 14 10 13 -9 -2 -16 -14 -22 -16 -22 -5 1 21
31 56 65 73 37 20 42 19 83 -2z"/>
<path d="M4140 3112 c0 -10 11 -28 24 -40 14 -11 28 -37 32 -57 3 -20 10 -33
15 -28 12 12 16 88 4 88 -5 0 -9 -13 -8 -30 1 -22 -3 -15 -17 25 -11 30 -20
56 -20 58 0 1 -7 2 -15 2 -8 0 -15 -8 -15 -18z m30 -18 c0 -8 -4 -12 -10 -9
-5 3 -10 13 -10 21 0 8 5 12 10 9 6 -3 10 -13 10 -21z"/>
<path d="M3938 3089 c-21 -11 -38 -21 -38 -23 0 -2 28 -14 63 -26 129 -47 172
-75 216 -141 23 -34 41 -69 41 -78 0 -27 -36 -132 -68 -201 -33 -69 -41 -71
-17 -5 8 22 14 49 14 60 0 11 -11 -14 -24 -55 -14 -41 -29 -82 -34 -90 -16
-23 -24 -4 -16 36 5 29 9 34 17 23 8 -11 9 -10 4 4 -3 10 -6 24 -7 30 -1 24
-21 -40 -30 -98 -6 -33 -20 -80 -32 -105 -11 -25 -23 -49 -26 -55 -2 -5 13 5
33 23 21 18 61 43 89 56 29 13 79 42 111 64 33 23 63 42 68 42 21 0 107 43
102 51 -3 5 -40 6 -82 3 -79 -6 -117 -22 -188 -79 l-31 -26 41 81 c46 90 201
269 299 347 41 32 55 49 48 56 -29 29 -183 -81 -244 -173 -16 -25 -27 -38 -24
-29 26 78 30 100 19 122 -6 12 -14 32 -17 44 -3 13 -11 22 -17 20 -7 -1 -20
15 -30 36 -10 21 -23 35 -28 32 -18 -11 -11 -25 31 -64 35 -32 42 -45 46 -87
l5 -49 -36 55 c-19 30 -49 83 -65 117 -47 98 -112 125 -193 82z m126 -10 c14
-11 33 -33 41 -48 12 -25 12 -28 -3 -29 -20 -1 -130 45 -148 62 -9 8 -7 14 10
23 32 18 70 15 100 -8z m296 -219 c-52 -53 -99 -97 -103 -98 -5 0 -15 -9 -23
-19 -8 -10 -5 2 7 27 29 60 95 136 143 165 80 48 71 22 -24 -75z m4 -269 c3
-4 -11 -13 -32 -19 -20 -6 -75 -36 -121 -67 -83 -55 -108 -66 -96 -42 4 6 0 4
-8 -6 -8 -10 -18 -14 -21 -9 -7 11 63 78 123 117 34 23 49 27 86 23 24 -3 42
-2 39 3 -3 5 2 9 10 9 8 0 17 -4 20 -9z"/>
<path d="M4409 2933 c-13 -16 -12 -17 4 -4 16 13 21 21 13 21 -2 0 -10 -8 -17
-17z"/>
<path d="M4339 2883 c-13 -16 -12 -17 4 -4 16 13 21 21 13 21 -2 0 -10 -8 -17
-17z"/>
<path d="M4308 2843 c-18 -21 -31 -43 -25 -43 2 0 13 14 25 30 25 33 24 41 0
13z"/>
<path d="M4259 2773 c-13 -16 -12 -17 4 -4 16 13 21 21 13 21 -2 0 -10 -8 -17
-17z"/>
<path d="M4149 2493 l-24 -28 28 24 c15 14 27 26 27 28 0 8 -8 1 -31 -24z"/>
<path d="M590 2976 c0 -2 8 -10 18 -17 15 -13 16 -12 3 4 -13 16 -21 21 -21
13z"/>
<path d="M645 2920 c10 -11 20 -20 23 -20 3 0 -3 9 -13 20 -10 11 -20 20 -23
20 -3 0 3 -9 13 -20z"/>
<path d="M4090 2885 c0 -36 23 -117 30 -105 5 8 12 0 20 -24 6 -19 9 -40 5
-46 -3 -5 -1 -10 4 -10 14 0 14 6 0 72 -16 82 -59 165 -59 113z m40 -63 c0
-15 -2 -15 -10 -2 -13 20 -13 33 0 25 6 -3 10 -14 10 -23z"/>
<path d="M1350 2858 c0 -21 -9 -41 -26 -59 l-25 -26 30 -6 c20 -4 35 -17 47
-38 l16 -32 20 31 c15 24 27 32 49 32 l30 0 -22 29 c-18 24 -19 32 -9 51 15
28 9 33 -26 20 -23 -9 -32 -8 -56 10 l-28 21 0 -33z"/>
<path d="M3621 2861 c-19 -14 -31 -17 -49 -10 -37 14 -42 11 -30 -22 9 -26 7
-33 -13 -55 l-22 -24 31 0 c23 0 37 -8 56 -32 l25 -32 7 28 c5 20 18 33 43 43
l36 15 -27 22 c-17 13 -28 33 -30 53 l-3 32 -24 -18z"/>
<path d="M852 2730 c0 -14 2 -19 5 -12 2 6 2 18 0 25 -3 6 -5 1 -5 -13z"/>
<path d="M4103 2715 c0 -22 2 -30 4 -17 2 12 2 30 0 40 -3 9 -5 -1 -4 -23z"/>
<path d="M4121 2704 c0 -11 3 -14 6 -6 3 7 2 16 -1 19 -3 4 -6 -2 -5 -13z"/>
<path d="M4091 2654 c0 -11 3 -14 6 -6 3 7 2 16 -1 19 -3 4 -6 -2 -5 -13z"/>
<path d="M1518 2579 c-21 -16 -31 -17 -53 -9 -34 13 -37 11 -26 -26 7 -24 4
-35 -11 -54 l-20 -25 36 -3 c23 -2 42 -11 55 -28 24 -30 31 -30 31 -1 0 29 9
40 45 56 l30 13 -25 13 c-17 9 -27 24 -30 48 l-5 36 -27 -20z"/>
<path d="M3450 2555 c0 -24 -6 -38 -20 -45 -27 -15 -25 -24 8 -36 21 -8 31
-20 35 -44 l7 -33 21 27 c15 19 30 26 55 26 39 0 41 3 15 37 -16 19 -18 30
-10 49 14 39 11 43 -22 31 -25 -10 -35 -9 -60 5 l-29 17 0 -34z"/>
<path d="M3967 2574 c-4 -4 -7 -21 -7 -38 0 -73 -77 -245 -137 -308 -15 -15
-44 -40 -65 -54 -21 -15 -36 -29 -33 -32 3 -3 13 2 22 10 35 31 235 147 265
153 21 5 27 10 17 15 -7 5 -22 4 -33 -2 -18 -10 -19 -9 -8 4 7 9 42 28 77 43
51 22 72 26 102 20 32 -6 35 -9 18 -15 -11 -4 -33 -6 -50 -4 -27 3 -28 3 -5
-4 23 -8 20 -10 -29 -22 -29 -8 -48 -16 -42 -18 6 -2 39 5 73 16 35 11 77 24
93 28 l30 7 -35 9 c-79 21 -98 20 -156 -6 -31 -15 -59 -24 -62 -21 -3 3 -12
-1 -20 -8 -10 -8 -8 3 7 30 20 39 20 48 10 115 -11 73 -19 94 -32 82z m18
-182 c-20 -47 -75 -113 -87 -106 -7 4 -8 2 -4 -4 3 -6 -3 -16 -15 -23 -19 -10
-16 -1 19 63 23 42 47 97 53 124 10 38 14 44 20 28 6 -15 8 -11 9 16 2 32 3
30 11 -14 6 -36 4 -59 -6 -84z"/>
<path d="M3820 2475 c-8 -10 -10 -30 -5 -61 5 -38 2 -55 -21 -102 l-28 -57 -8
35 c-4 19 -4 59 -1 89 5 48 4 53 -13 49 -22 -4 -31 -43 -15 -62 18 -21 25
-120 11 -147 -13 -23 -13 -23 -21 -4 -4 11 -8 35 -8 53 -1 17 -6 32 -11 32
-21 0 -21 -28 -1 -66 26 -48 26 -46 -4 -82 -18 -22 -40 -34 -76 -41 -54 -12
-120 -42 -104 -48 6 -2 42 7 80 19 59 19 93 22 222 23 83 0 146 3 140 7 -10 6
21 14 83 20 14 2 26 10 28 21 5 24 -31 22 -66 -3 -28 -20 -161 -42 -149 -24 5
8 91 53 167 88 14 7 26 19 28 29 6 29 -36 20 -68 -14 -29 -32 -79 -69 -93 -69
-5 0 1 12 12 26 11 15 18 31 15 36 -9 13 -42 -20 -46 -46 -4 -28 -61 -56 -114
-56 -60 0 -54 22 33 112 41 43 72 82 68 88 -9 15 -23 3 -39 -33 -7 -18 -24
-41 -36 -52 -26 -22 -26 -24 17 65 50 104 63 139 63 165 0 28 -21 33 -40 10z
m30 -13 c0 -10 -7 -27 -15 -38 -14 -19 -14 -19 -15 3 0 28 10 53 21 53 5 0 9
-8 9 -18z m-100 -69 c0 -20 -3 -24 -11 -16 -7 7 -9 19 -6 27 10 24 17 19 17
-11z m290 -149 c0 -11 -34 -33 -49 -34 -11 0 -10 5 4 20 17 19 45 27 45 14z
m15 -94 c-3 -5 -16 -10 -28 -10 -18 0 -19 2 -7 10 20 13 43 13 35 0z"/>
<path d="M1676 2331 c-12 -13 -31 -21 -53 -21 l-34 0 16 -31 c13 -24 14 -37 6
-61 l-11 -30 38 7 c26 4 43 1 57 -9 28 -22 32 -20 27 14 -3 23 2 34 24 54 l29
24 -28 7 c-18 5 -32 18 -40 37 l-12 30 -19 -21z"/>
<path d="M3288 2313 c-2 -21 -10 -29 -36 -35 l-33 -9 31 -25 c21 -18 30 -35
30 -55 l0 -30 28 21 c24 18 33 19 56 10 36 -13 40 -9 25 24 -10 22 -10 33 4
61 l16 34 -32 -6 c-24 -4 -37 0 -51 16 -25 28 -34 26 -38 -6z"/>
<path d="M907 2294 c-13 -13 13 -42 51 -57 22 -9 61 -30 88 -46 54 -35 75 -40
51 -13 -10 10 -17 27 -17 38 0 20 -17 44 -32 44 -12 0 -10 -28 4 -36 7 -5 8
-2 3 7 -5 8 -4 11 0 6 9 -8 15 -47 7 -47 -8 0 -67 45 -71 54 -14 35 -67 66
-84 50z m48 -24 c15 -16 15 -20 3 -20 -8 0 -23 9 -33 20 -15 16 -15 20 -3 20
8 0 23 -9 33 -20z"/>
<path d="M2285 2210 c-212 -14 -464 -57 -670 -116 -118 -34 -335 -114 -335
-124 0 -10 141 -343 149 -351 3 -4 46 9 95 28 442 172 976 218 1472 127 151
-27 332 -78 465 -129 50 -19 93 -34 94 -33 6 6 155 362 152 363 -6 5 -239 86
-299 105 -347 107 -750 154 -1123 130z m35 -82 c1 -23 20 -171 25 -191 6 -21
4 -27 -9 -27 -9 0 -20 16 -27 43 -7 23 -14 43 -15 45 -1 2 -18 0 -38 -3 -35
-7 -36 -9 -36 -51 0 -50 -17 -68 -25 -27 -4 15 -9 37 -13 48 -11 31 1 138 16
143 8 2 12 -11 12 -48 l0 -52 37 7 c54 10 56 12 51 66 -4 37 -2 49 8 49 8 0
14 -1 14 -2z m252 -58 c27 -27 30 -36 25 -72 -8 -58 -35 -81 -96 -82 -65 -1
-101 29 -101 87 0 89 107 131 172 67z m-519 -28 c16 -24 36 -42 47 -42 10 0
22 -4 25 -10 3 -5 -1 -10 -9 -10 -21 0 -20 -8 5 -49 31 -52 7 -63 -26 -12 -31
47 -28 45 -72 29 -23 -8 -35 -20 -39 -38 -10 -47 -14 -54 -25 -43 -8 8 16 146
37 211 7 22 27 9 57 -36z m752 -19 c-10 -95 -22 -117 -65 -121 -44 -3 -100 29
-100 58 0 26 6 25 33 -4 12 -13 34 -27 49 -30 35 -8 48 15 48 83 0 59 7 81 27
81 12 0 13 -12 8 -67z m189 33 c44 -18 62 -62 46 -110 -14 -44 -44 -66 -88
-66 -102 0 -145 102 -70 165 33 28 64 31 112 11z m251 -25 c16 -7 13 -9 -19
-15 -21 -4 -50 -15 -63 -23 -51 -33 -68 -116 -25 -125 26 -6 75 10 90 29 23
32 15 43 -34 43 -27 0 -43 4 -39 10 7 11 103 14 129 4 20 -8 21 -24 1 -24 -13
0 -20 -18 -39 -103 -8 -36 -32 -29 -28 7 2 23 0 27 -15 22 -61 -18 -71 -17
-98 6 -23 20 -26 29 -21 56 9 39 40 78 80 103 33 20 49 22 81 10z m-1395 -9
c0 -5 -24 -19 -52 -33 -29 -13 -53 -28 -53 -34 0 -5 32 -11 72 -13 81 -3 94
-15 61 -57 -21 -27 -87 -65 -113 -65 -24 0 -56 20 -50 31 4 6 13 5 25 -1 13
-7 28 -7 47 1 30 11 73 47 73 61 0 4 -34 8 -75 8 -65 0 -75 2 -75 18 0 26 11
38 60 66 45 26 80 33 80 18z"/>
<path d="M2480 2073 c-31 -11 -50 -37 -50 -69 0 -43 23 -64 70 -64 30 0 43 6
59 26 26 33 27 66 4 86 -21 18 -62 28 -83 21z"/>
<path d="M2010 2036 c0 -7 -3 -28 -6 -46 -7 -31 -6 -32 17 -20 13 7 25 14 27
15 5 4 -27 65 -33 65 -3 0 -5 -6 -5 -14z"/>
<path d="M2898 2023 c-38 -43 -25 -101 25 -114 86 -23 143 80 67 121 -29 16
-75 12 -92 -7z"/>
<path d="M884 2198 c-10 -16 24 -38 60 -38 17 0 38 -5 46 -11 11 -7 1 -9 -37
-7 -30 2 -52 -1 -52 -7 -1 -11 10 -11 169 3 115 10 114 13 -2 16 -65 2 -82 6
-115 29 -43 30 -58 33 -69 15z m46 -8 c8 -5 12 -12 8 -15 -10 -10 -49 5 -43
16 8 11 16 11 35 -1z m7 -56 c-3 -3 -12 -4 -19 -1 -8 3 -5 6 6 6 11 1 17 -2
13 -5z"/>
<path d="M3986 2101 c-7 -10 17 -21 45 -21 10 0 19 7 19 15 0 17 -55 22 -64 6z
m51 -7 c-3 -3 -12 -4 -19 -1 -8 3 -5 6 6 6 11 1 17 -2 13 -5z"/>
<path d="M1190 1839 c-47 -22 -122 -61 -167 -86 l-82 -46 32 -32 c116 -115
116 -116 107 -167 -5 -26 -9 -78 -8 -116 l2 -68 90 54 c74 45 187 100 326 159
25 10 25 11 -21 33 -45 22 -47 25 -106 164 -33 78 -66 142 -74 143 -8 2 -52
-15 -99 -38z"/>
<path d="M3625 1739 c-60 -139 -60 -141 -109 -166 l-49 -25 101 -42 c107 -46
231 -111 298 -157 l41 -28 1 74 c1 40 -2 94 -7 118 l-8 46 83 68 83 68 -45 28
c-77 48 -302 157 -323 157 -4 0 -34 -63 -66 -141z"/>
<path d="M1468 1612 c-27 -5 -22 -17 17 -35 34 -16 35 -16 26 0 -19 33 -26 39
-43 35z"/>
<path d="M3481 1597 c-11 -29 -10 -30 29 -14 32 14 32 18 -3 30 -13 5 -20 0
-26 -16z"/>
<path d="M1897 1583 c-12 -11 -8 -50 6 -61 6 -5 21 -11 31 -13 11 -2 21 -10
24 -18 3 -10 -4 -12 -32 -9 -30 3 -36 1 -36 -14 0 -15 8 -18 43 -18 55 0 69
11 65 46 -2 22 -10 30 -35 38 -44 12 -42 29 2 24 29 -3 35 -1 35 14 0 15 -8
18 -48 18 -27 0 -52 -3 -55 -7z"/>
<path d="M2030 1520 c0 -66 1 -70 23 -70 21 0 22 3 19 70 -3 61 -6 70 -23 70
-17 0 -19 -8 -19 -70z"/>
<path d="M2105 1520 c0 -66 1 -70 23 -70 18 0 22 6 23 33 l0 32 16 -32 c12
-25 23 -33 42 -33 25 0 26 2 26 70 0 66 -1 70 -22 70 -19 0 -23 -6 -24 -32 l0
-33 -16 33 c-12 24 -23 32 -42 32 -25 0 -26 -2 -26 -70z"/>
<path d="M2279 1574 c-7 -9 -14 -34 -14 -56 0 -48 22 -68 77 -68 30 0 38 4 38
18 0 15 -6 18 -28 14 -36 -5 -57 18 -48 54 6 23 11 26 41 22 29 -3 35 -1 35
14 0 15 -8 18 -44 18 -28 0 -48 -6 -57 -16z"/>
<path d="M2408 1520 l-3 -70 63 0 c53 0 62 3 62 18 0 14 -7 17 -40 14 -33 -3
-40 -1 -40 13 0 13 6 16 25 13 19 -4 25 -1 25 14 0 14 -6 17 -25 14 -17 -3
-25 0 -25 10 0 9 11 14 35 14 24 0 35 5 35 15 0 11 -13 15 -54 15 l-54 0 -4
-70z"/>
<path d="M2620 1575 c0 -10 10 -15 30 -15 41 0 39 -21 -5 -54 -52 -40 -46 -56
20 -56 47 0 55 3 55 19 0 14 -6 17 -26 13 l-26 -5 26 26 c46 46 29 87 -36 87
-27 0 -38 -4 -38 -15z"/>
<path d="M2756 1574 c-22 -22 -21 -87 2 -107 23 -21 66 -22 82 -2 7 9 13 33
13 55 0 22 -6 46 -13 55 -16 20 -64 19 -84 -1z m59 -34 c8 -26 -3 -62 -18 -57
-7 2 -13 20 -15 40 -2 28 1 37 12 37 8 0 18 -9 21 -20z"/>
<path d="M2880 1572 c0 -15 6 -18 30 -14 22 3 30 0 30 -11 0 -8 -13 -27 -30
-40 -47 -40 -40 -57 25 -57 44 0 53 3 49 15 -4 8 -15 15 -27 15 -20 0 -20 0 2
24 15 16 21 33 19 52 -3 27 -7 29 -50 32 -41 3 -48 0 -48 -16z"/>
<path d="M3010 1572 c0 -15 6 -18 30 -14 18 3 30 0 30 -7 0 -6 -7 -11 -15 -11
-23 0 -18 -27 6 -33 29 -8 14 -27 -22 -27 -19 0 -29 -5 -29 -15 0 -11 11 -15
38 -15 55 0 62 8 59 75 l-2 60 -47 3 c-41 3 -48 0 -48 -16z"/>
<path d="M1687 1562 c-24 -27 -21 -59 8 -78 23 -15 27 -15 50 0 46 30 26 96
-28 96 -8 0 -21 -8 -30 -18z"/>
<path d="M3235 1560 c-37 -40 10 -99 63 -79 17 6 22 16 22 43 0 54 -50 75 -85
36z"/>
<path d="M1056 1240 c-90 -27 -113 -155 -37 -209 15 -11 62 -29 106 -40 94
-24 112 -42 78 -76 -14 -14 -31 -17 -92 -13 -44 3 -90 12 -109 22 l-33 17 3
-58 3 -57 40 -9 c22 -4 86 -7 142 -5 85 2 106 7 130 24 36 27 57 83 49 127
-10 55 -47 83 -142 108 -93 24 -117 45 -87 75 14 13 29 16 84 11 37 -3 81 -13
98 -22 l31 -16 0 55 0 55 -37 10 c-45 13 -186 13 -227 1z"/>
<path d="M1515 1238 c-3 -7 -25 -98 -50 -202 -25 -105 -53 -198 -62 -208 -15
-17 -12 -18 78 -18 54 0 88 4 81 9 -8 5 -12 23 -10 47 l3 39 49 3 c32 2 52 -1
57 -10 13 -20 11 -76 -3 -81 -7 -3 29 -6 81 -6 92 -1 94 -1 77 18 -10 10 -35
92 -57 182 -22 90 -44 181 -50 202 l-10 37 -90 0 c-63 0 -91 -4 -94 -12z m111
-160 c17 -82 18 -78 -16 -78 -16 0 -30 5 -30 11 0 25 24 139 28 134 2 -2 10
-32 18 -67z"/>
<path d="M1898 1238 c17 -17 17 -399 0 -416 -9 -9 8 -12 77 -12 60 0 85 3 75
10 -10 6 -16 32 -18 84 l-4 76 76 0 76 0 0 -66 c0 -36 -5 -74 -10 -85 -10 -18
-7 -19 70 -19 77 0 80 1 70 19 -13 26 -14 388 0 396 27 16 3 25 -70 25 -77 0
-80 -1 -70 -19 5 -11 10 -49 10 -85 0 -56 -3 -66 -17 -67 -10 0 -38 -2 -63 -3
-25 -1 -51 0 -57 2 -19 6 -17 122 3 150 l15 22 -87 0 c-69 0 -85 -3 -76 -12z"/>
<path d="M2519 1240 c-47 -14 -78 -41 -100 -88 -43 -89 -23 -252 37 -303 31
-26 82 -39 154 -39 130 0 191 60 198 195 9 167 -59 247 -209 244 -30 0 -66 -4
-80 -9z m137 -103 c20 -18 28 -35 32 -75 10 -108 -18 -162 -86 -162 -66 0 -98
63 -85 165 11 87 79 123 139 72z"/>
<path d="M2930 1241 c0 -6 5 -13 10 -16 11 -7 14 -282 4 -309 -7 -19 -55 -21
-72 -4 -9 9 -12 0 -12 -40 0 -48 2 -52 28 -59 77 -21 153 3 172 53 6 14 10 99
10 189 0 98 4 166 10 170 27 16 3 25 -70 25 -44 0 -80 -4 -80 -9z"/>
<path d="M3264 1231 c-78 -35 -109 -106 -102 -226 10 -147 71 -200 223 -194
97 5 125 20 165 90 21 38 25 56 25 129 -1 109 -27 163 -95 198 -57 28 -156 30
-216 3z m160 -94 c43 -43 43 -171 0 -218 -23 -26 -87 -26 -113 0 -25 25 -35
77 -29 143 4 40 12 57 32 75 35 30 80 30 110 0z"/>
<path d="M3755 1231 c-87 -39 -128 -138 -107 -254 23 -125 84 -169 230 -169
48 0 99 5 115 11 l27 11 0 110 0 110 -82 0 c-72 0 -79 -2 -63 -14 13 -10 20
-30 23 -75 l4 -61 -35 0 c-69 0 -115 74 -100 160 9 52 21 70 58 86 47 19 102
17 153 -6 l42 -19 0 54 c0 54 0 54 -37 64 -62 17 -182 13 -228 -8z"/>
<path d="M2138 685 c2 -14 6 -25 7 -25 1 0 5 11 7 25 3 16 1 25 -7 25 -8 0
-10 -9 -7 -25z"/>
<path d="M960 641 l0 -61 33 0 c18 0 38 5 45 12 13 13 16 48 4 48 -4 0 -8 12
-7 28 0 24 -4 27 -37 30 l-38 3 0 -60z m55 29 c0 -8 -8 -16 -17 -18 -13 -2
-18 3 -18 18 0 15 5 20 18 18 9 -2 17 -10 17 -18z m5 -55 c0 -18 -5 -25 -20
-25 -15 0 -20 7 -20 25 0 18 5 25 20 25 15 0 20 -7 20 -25z"/>
<path d="M1080 640 l0 -60 43 1 c29 2 34 3 15 6 -22 3 -28 10 -28 28 0 18 6
25 28 28 l27 4 -27 2 c-21 1 -28 6 -28 20 0 14 8 21 28 24 19 3 14 4 -15 6
l-43 1 0 -60z"/>
<path d="M1253 693 c-7 -2 -13 -15 -13 -28 0 -17 8 -26 30 -34 17 -6 30 -17
30 -27 0 -13 -6 -15 -30 -10 -17 3 -30 1 -30 -4 0 -14 64 -12 78 2 23 23 13
46 -24 58 -42 14 -40 36 5 34 17 -1 28 2 25 7 -5 9 -50 11 -71 2z"/>
<path d="M1367 682 c-22 -24 -21 -65 1 -85 40 -36 95 -11 95 43 0 54 -61 81
-96 42z m61 -4 c29 -29 3 -98 -33 -84 -15 5 -22 76 -8 89 10 11 28 8 41 -5z"/>
<path d="M1490 640 c0 -47 3 -60 15 -60 11 0 15 11 16 38 0 34 1 35 11 15 6
-13 14 -23 18 -23 4 0 12 10 18 23 10 20 11 19 11 -15 1 -27 5 -38 16 -38 12
0 15 13 15 60 0 48 -3 60 -16 60 -8 0 -20 -13 -25 -30 -6 -16 -14 -30 -18 -30
-4 0 -12 14 -18 30 -6 17 -18 30 -27 30 -13 0 -16 -12 -16 -60z"/>
<path d="M1649 663 c-7 -74 -2 -83 44 -81 37 1 38 2 10 5 -27 4 -33 9 -33 28
0 18 6 25 28 28 l27 4 -27 2 c-21 1 -28 6 -28 20 0 15 8 21 33 24 28 3 27 4
-9 5 -41 2 -42 2 -45 -35z"/>
<path d="M1767 682 c-50 -55 26 -138 77 -86 23 22 21 81 -3 94 -29 15 -56 12
-74 -8z m65 -17 c15 -32 -4 -78 -30 -73 -17 3 -29 56 -18 84 9 22 35 16 48
-11z"/>
<path d="M1890 640 c0 -33 4 -60 10 -60 11 0 13 11 10 53 -2 39 14 33 35 -13
27 -60 45 -52 45 20 0 66 -17 83 -22 23 l-3 -38 -22 38 c-34 57 -53 49 -53
-23z"/>
<path d="M2030 650 c0 -27 -1 -53 -2 -57 -2 -5 17 -9 42 -9 30 -1 34 0 13 3
-27 3 -33 9 -33 28 0 18 6 25 28 28 l27 4 -27 2 c-21 1 -28 6 -28 20 0 15 8
21 33 24 28 3 26 4 -10 5 l-43 2 0 -50z"/>
<path d="M2189 684 c-17 -20 -1 -46 32 -54 37 -9 31 -35 -8 -34 -18 1 -30 -2
-27 -7 15 -24 94 1 94 30 0 12 -22 28 -45 33 -32 5 -25 33 8 31 15 -1 27 2 27
8 0 15 -67 10 -81 -7z"/>
<path d="M2360 640 c0 -33 4 -60 10 -60 6 0 10 11 10 25 0 14 4 25 9 25 5 0
16 -11 25 -25 9 -14 24 -25 32 -25 15 0 15 2 0 25 -13 20 -14 28 -4 44 17 27
-5 51 -48 51 l-34 0 0 -60z m60 25 c0 -18 -5 -25 -20 -25 -15 0 -20 7 -20 25
0 18 5 25 20 25 15 0 20 -7 20 -25z"/>
<path d="M2480 640 l0 -60 43 1 c29 2 34 3 15 6 -22 3 -28 10 -28 28 0 18 6
25 28 28 l27 4 -27 2 c-21 1 -28 6 -28 20 0 14 8 21 28 24 19 3 14 4 -15 6
l-43 1 0 -60z"/>
<path d="M2615 688 c-26 -72 -34 -102 -29 -107 3 -3 11 2 18 12 17 22 45 22
62 0 22 -31 25 -8 6 48 -18 52 -46 76 -57 47z m35 -55 c0 -7 -7 -13 -15 -13
-16 0 -19 9 -9 35 5 13 8 14 15 3 5 -7 9 -19 9 -25z"/>
<path d="M2719 684 c-17 -20 -1 -46 32 -54 37 -9 31 -35 -8 -34 -18 1 -30 -2
-27 -7 7 -11 55 -11 72 0 22 14 10 54 -18 61 -14 3 -26 14 -28 24 -4 16 1 18
27 13 20 -4 30 -3 26 3 -10 16 -61 12 -76 -6z"/>
<path d="M2837 682 c-22 -24 -21 -65 1 -85 40 -36 95 -11 95 43 0 54 -61 81
-96 42z m67 -14 c15 -25 -4 -73 -29 -73 -15 0 -21 8 -23 33 -2 19 -1 41 2 49
7 18 35 13 50 -9z"/>
<path d="M2969 693 c-1 -5 -1 -30 -1 -58 -1 -61 20 -73 24 -13 l3 43 23 -42
c33 -63 52 -57 52 17 0 47 -3 60 -15 60 -11 0 -15 -11 -15 -37 l0 -38 -22 38
c-20 33 -46 49 -49 30z"/>
<path d="M3158 693 c20 -4 22 -10 22 -59 0 -41 4 -54 15 -54 11 0 15 13 15 54
0 44 4 55 18 59 9 3 -8 5 -38 4 -30 0 -45 -2 -32 -4z"/>
<path d="M3277 682 c-50 -55 26 -138 77 -86 23 22 21 81 -3 94 -29 15 -56 12
-74 -8z m65 -17 c15 -32 -4 -78 -30 -73 -17 3 -29 56 -18 84 9 22 35 16 48
-11z"/>
<path d="M3459 684 c-17 -20 -1 -46 32 -54 37 -9 31 -35 -8 -34 -18 1 -30 -2
-27 -7 7 -11 55 -11 72 0 22 14 10 54 -18 61 -14 3 -26 14 -28 24 -4 16 1 18
27 13 20 -4 30 -3 26 3 -10 16 -61 12 -76 -6z"/>
<path d="M3570 640 c0 -33 4 -60 10 -60 6 0 10 19 10 43 l1 42 15 -27 c8 -16
17 -28 19 -28 2 0 11 12 19 28 l15 27 1 -42 c0 -24 5 -43 10 -43 6 0 10 27 10
60 0 67 -20 83 -39 30 -5 -16 -13 -30 -16 -30 -3 0 -11 14 -16 30 -19 53 -39
37 -39 -30z"/>
<path d="M3725 640 l0 -60 30 1 c17 0 24 3 18 6 -8 3 -13 24 -13 53 0 29 5 50
13 53 6 3 -1 6 -18 6 l-30 1 0 -60z"/>
<path d="M3810 640 l0 -60 43 2 c36 1 38 2 10 5 -33 4 -33 5 -33 59 0 30 -4
54 -10 54 -6 0 -10 -27 -10 -60z"/>
<path d="M3910 640 l0 -60 43 1 c29 2 34 3 15 6 -22 3 -28 10 -28 28 0 18 6
25 28 28 l27 4 -27 2 c-21 1 -28 6 -28 20 0 14 8 21 28 24 19 3 14 4 -15 6
l-43 1 0 -60z"/>
</g>
</svg>
